# xmcd
#
# Track frame offsets:
#   150
#   20719
#   40359
#   59052
#   77473
#   92518
#   108251
#   125937
#   145804
#   164335
#   181435
#   197268
#   210400
#   227400
#   240571
#
# Disc length: 3455 seconds
#
# Revision: 0
# Processed by: cddbd v1.5.1PL2 Copyright (c) Steve Scherf et al.
# Submitted via: uFREEDB ActiveX Control 1.5
#
DISCID=c60d7d0f
DTITLE=Rick e Renner - instante mágico
DYEAR=1900
DGENRE=Country
TTITLE0=instante mágico
TTITLE1=assim é o nosso amor
TTITLE2=cara de pau
TTITLE3=perigo
TTITLE4=na pontinha do pé 
TTITLE5=vem me namorar
TTITLE6=fim de semana
TTITLE7=como esquecer tanto amor
TTITLE8=minha vida clareou
TTITLE9=quando o sol se por
TTITLE10=muleca
TTITLE11=sofro e choro
TTITLE12=paixão de peao
TTITLE13=que nem chiclete
TTITLE14=no momento em que te amei
EXTD=
EXTT0=
EXTT1=
EXTT2=
EXTT3=
EXTT4=
EXTT5=
EXTT6=
EXTT7=
EXTT8=
EXTT9=
EXTT10=
EXTT11=
EXTT12=
EXTT13=
EXTT14=
PLAYORDER=
